<svg width="175" height="175" viewBox="0 0 162 135" fill="none" xmlns="http://www.w3.org/2000/svg">
<path d="M68 23L83.3333 123H139.333L162 47.6667L68 23Z" fill="url(#paint0_linear)"/>
<path d="M81.7693 0L118.654 94.6894L69.9403 122.814L12.3883 68.6667L81.7693 0Z" fill="url(#paint1_linear)"/>
<path d="M142 23L126.667 123H70.6667L48 47.6667L142 23Z" fill="url(#paint2_linear)"/>
<rect x="62" y="58" width="65" height="65" fill="#060606"/>
<path d="M73.3123 104.984C73.6323 104.963 73.8829 105.037 74.0643 105.208C74.2563 105.368 74.3523 105.613 74.3523 105.944C74.3523 106.296 74.2669 106.557 74.0963 106.728C73.9256 106.899 73.6216 107.005 73.1843 107.048L72.7043 107.096C72.1176 107.16 71.6909 107.352 71.4243 107.672C71.1683 107.992 71.0403 108.403 71.0403 108.904V111.96C71.0403 112.333 70.9229 112.616 70.6883 112.808C70.4643 113 70.1816 113.096 69.8403 113.096C69.4883 113.096 69.1949 113 68.9603 112.808C68.7363 112.616 68.6243 112.333 68.6243 111.96V106.088C68.6243 105.736 68.7416 105.464 68.9763 105.272C69.2109 105.08 69.4936 104.984 69.8243 104.984C70.1443 104.984 70.4109 105.08 70.6243 105.272C70.8376 105.453 70.9443 105.709 70.9443 106.04V106.472C71.1363 106.013 71.4243 105.661 71.8083 105.416C72.2029 105.171 72.6296 105.032 73.0883 105L73.3123 104.984ZM81.5139 110.664C81.7272 110.664 81.8979 110.749 82.0259 110.92C82.1645 111.091 82.2339 111.309 82.2339 111.576C82.2339 111.757 82.1805 111.928 82.0739 112.088C81.9672 112.237 81.8179 112.365 81.6259 112.472C81.2632 112.664 80.8419 112.824 80.3619 112.952C79.8819 113.069 79.4392 113.128 79.0339 113.128C78.1805 113.128 77.4339 112.963 76.7939 112.632C76.1645 112.301 75.6792 111.832 75.3379 111.224C74.9965 110.605 74.8259 109.88 74.8259 109.048C74.8259 108.248 74.9912 107.539 75.3219 106.92C75.6525 106.301 76.1112 105.821 76.6979 105.48C77.2845 105.128 77.9512 104.952 78.6979 104.952C79.4125 104.952 80.0365 105.112 80.5699 105.432C81.1139 105.741 81.5352 106.189 81.8339 106.776C82.1325 107.352 82.2819 108.029 82.2819 108.808C82.2819 109.043 82.2232 109.224 82.1059 109.352C81.9992 109.469 81.8445 109.528 81.6419 109.528H77.1619C77.2365 110.157 77.4285 110.616 77.7379 110.904C78.0472 111.181 78.4899 111.32 79.0659 111.32C79.3752 111.32 79.6525 111.283 79.8979 111.208C80.1432 111.133 80.4152 111.032 80.7139 110.904C80.8632 110.84 81.0072 110.787 81.1459 110.744C81.2845 110.691 81.4072 110.664 81.5139 110.664ZM78.7619 106.616C78.3032 106.616 77.9352 106.765 77.6579 107.064C77.3805 107.352 77.2152 107.773 77.1619 108.328H80.2499C80.2179 107.763 80.0739 107.336 79.8179 107.048C79.5725 106.76 79.2205 106.616 78.7619 106.616ZM90.7651 101.64C91.1385 101.64 91.4371 101.741 91.6611 101.944C91.8958 102.147 92.0131 102.413 92.0131 102.744V111.96C92.0131 112.301 91.9011 112.579 91.6771 112.792C91.4638 112.995 91.1758 113.096 90.8131 113.096C90.4505 113.096 90.1571 112.995 89.9331 112.792C89.7198 112.579 89.6131 112.301 89.6131 111.96V111.832C89.3785 112.237 89.0425 112.557 88.6051 112.792C88.1785 113.016 87.6931 113.128 87.1491 113.128C86.4771 113.128 85.8745 112.957 85.3411 112.616C84.8185 112.264 84.4078 111.779 84.1091 111.16C83.8211 110.531 83.6771 109.811 83.6771 109C83.6771 108.189 83.8211 107.48 84.1091 106.872C84.4078 106.253 84.8185 105.779 85.3411 105.448C85.8638 105.117 86.4665 104.952 87.1491 104.952C87.6825 104.952 88.1625 105.064 88.5891 105.288C89.0265 105.512 89.3625 105.827 89.5971 106.232V102.696C89.5971 102.376 89.7038 102.12 89.9171 101.928C90.1305 101.736 90.4131 101.64 90.7651 101.64ZM87.8531 111.288C88.4185 111.288 88.8505 111.096 89.1491 110.712C89.4585 110.317 89.6131 109.757 89.6131 109.032C89.6131 108.307 89.4585 107.752 89.1491 107.368C88.8505 106.984 88.4185 106.792 87.8531 106.792C87.2878 106.792 86.8505 106.984 86.5411 107.368C86.2318 107.741 86.0771 108.285 86.0771 109C86.0771 109.725 86.2318 110.291 86.5411 110.696C86.8505 111.091 87.2878 111.288 87.8531 111.288ZM95.4096 113.096C95.0576 113.096 94.7643 113 94.5296 112.808C94.3056 112.616 94.1936 112.333 94.1936 111.96V106.12C94.1936 105.747 94.311 105.464 94.5456 105.272C94.7803 105.08 95.0683 104.984 95.4096 104.984C95.751 104.984 96.0336 105.08 96.2576 105.272C96.4923 105.464 96.6096 105.747 96.6096 106.12V111.96C96.6096 112.333 96.4923 112.616 96.2576 112.808C96.0336 113 95.751 113.096 95.4096 113.096ZM95.4096 103.704C94.983 103.704 94.647 103.597 94.4016 103.384C94.1563 103.16 94.0336 102.861 94.0336 102.488C94.0336 102.115 94.1563 101.821 94.4016 101.608C94.647 101.395 94.983 101.288 95.4096 101.288C95.8256 101.288 96.1563 101.4 96.4016 101.624C96.6576 101.837 96.7856 102.125 96.7856 102.488C96.7856 102.861 96.663 103.16 96.4176 103.384C96.1723 103.597 95.8363 103.704 95.4096 103.704ZM101.755 113.128C101.105 113.128 100.539 113.075 100.059 112.968C99.5792 112.861 99.1579 112.691 98.7952 112.456C98.6352 112.36 98.5126 112.232 98.4272 112.072C98.3419 111.912 98.2992 111.731 98.2992 111.528C98.2992 111.283 98.3686 111.08 98.5072 110.92C98.6459 110.749 98.8166 110.664 99.0192 110.664C99.1579 110.664 99.2966 110.691 99.4352 110.744C99.5739 110.787 99.7179 110.84 99.8672 110.904C100.166 111.043 100.459 111.155 100.747 111.24C101.035 111.315 101.393 111.352 101.819 111.352C102.193 111.352 102.481 111.293 102.683 111.176C102.897 111.059 103.003 110.899 103.003 110.696C103.003 110.547 102.955 110.429 102.859 110.344C102.774 110.248 102.609 110.163 102.363 110.088C102.118 110.013 101.729 109.923 101.195 109.816C100.246 109.635 99.5632 109.363 99.1472 109C98.7312 108.637 98.5232 108.131 98.5232 107.48C98.5232 107 98.6672 106.568 98.9552 106.184C99.2539 105.8 99.6592 105.501 100.171 105.288C100.683 105.064 101.259 104.952 101.899 104.952C102.358 104.952 102.806 105.011 103.243 105.128C103.681 105.245 104.07 105.411 104.411 105.624C104.742 105.827 104.907 106.125 104.907 106.52C104.907 106.776 104.838 106.989 104.699 107.16C104.561 107.331 104.39 107.416 104.187 107.416C103.942 107.416 103.649 107.32 103.307 107.128C103.041 106.989 102.795 106.888 102.571 106.824C102.358 106.749 102.102 106.712 101.803 106.712C101.473 106.712 101.211 106.776 101.019 106.904C100.827 107.021 100.731 107.187 100.731 107.4C100.731 107.624 100.843 107.795 101.067 107.912C101.291 108.029 101.723 108.147 102.363 108.264C103.078 108.403 103.638 108.573 104.043 108.776C104.449 108.968 104.742 109.213 104.923 109.512C105.105 109.811 105.195 110.189 105.195 110.648C105.195 111.405 104.881 112.008 104.251 112.456C103.633 112.904 102.801 113.128 101.755 113.128ZM113.648 104.984C114.011 104.984 114.299 105.091 114.512 105.304C114.736 105.507 114.848 105.779 114.848 106.12V114.856C114.848 115.187 114.731 115.453 114.496 115.656C114.272 115.859 113.973 115.96 113.6 115.96C113.248 115.96 112.965 115.864 112.752 115.672C112.539 115.48 112.432 115.224 112.432 114.904V111.864C112.197 112.259 111.861 112.568 111.424 112.792C110.997 113.016 110.517 113.128 109.984 113.128C109.301 113.128 108.699 112.963 108.176 112.632C107.653 112.301 107.243 111.832 106.944 111.224C106.656 110.605 106.512 109.891 106.512 109.08C106.512 108.269 106.656 107.555 106.944 106.936C107.243 106.307 107.653 105.821 108.176 105.48C108.709 105.128 109.312 104.952 109.984 104.952C110.528 104.952 111.013 105.069 111.44 105.304C111.877 105.528 112.213 105.843 112.448 106.248V106.12C112.448 105.779 112.555 105.507 112.768 105.304C112.992 105.091 113.285 104.984 113.648 104.984ZM110.688 111.288C111.253 111.288 111.685 111.096 111.984 110.712C112.293 110.328 112.448 109.773 112.448 109.048C112.448 108.323 112.293 107.768 111.984 107.384C111.685 106.989 111.253 106.792 110.688 106.792C110.123 106.792 109.685 106.995 109.376 107.4C109.067 107.795 108.912 108.355 108.912 109.08C108.912 109.795 109.067 110.344 109.376 110.728C109.685 111.101 110.123 111.288 110.688 111.288ZM119.182 113.096C118.83 113.096 118.537 113 118.302 112.808C118.078 112.616 117.966 112.333 117.966 111.96V102.776C117.966 102.403 118.078 102.12 118.302 101.928C118.537 101.736 118.83 101.64 119.182 101.64C119.523 101.64 119.806 101.736 120.03 101.928C120.265 102.12 120.382 102.403 120.382 102.776V111.96C120.382 112.333 120.265 112.616 120.03 112.808C119.806 113 119.523 113.096 119.182 113.096Z" fill="white"/>
<defs>
<linearGradient id="paint0_linear" x1="91" y1="132" x2="157" y2="43.5" gradientUnits="userSpaceOnUse">
<stop offset="0.317708" stop-color="#A41E11"/>
<stop offset="0.947917" stop-color="#F14F54"/>
</linearGradient>
<linearGradient id="paint1_linear" x1="71" y1="122" x2="10" y2="30.5" gradientUnits="userSpaceOnUse">
<stop offset="0.223958" stop-color="#B31D7A"/>
<stop offset="1" stop-color="#D23428"/>
</linearGradient>
<linearGradient id="paint2_linear" x1="119" y1="132" x2="53" y2="43.5" gradientUnits="userSpaceOnUse">
<stop offset="0.270833" stop-color="#B31D53"/>
<stop offset="0.947917" stop-color="#F14F54"/>
</linearGradient>
</defs>
</svg>
