<svg width="117" height="45" viewBox="0 0 117 45" fill="none" xmlns="http://www.w3.org/2000/svg">
<path d="M115.261 24.1126C116.427 23.1403 116.585 21.4063 115.613 20.2395C114.64 19.0727 112.906 18.9151 111.739 19.8874L115.261 24.1126ZM106.087 28.1774L107.848 30.29L107.848 30.29L106.087 28.1774ZM26.6594 12.7335L29.0493 14.0939L29.0493 14.0939L26.6594 12.7335ZM7.3481 42.728C7.75015 44.1926 9.26337 45.0539 10.728 44.6519L34.595 38.1002C36.0596 37.6981 36.921 36.1849 36.519 34.7203C36.1169 33.2557 34.6037 32.3943 33.1391 32.7964L11.9239 38.6201L6.10015 17.405C5.6981 15.9404 4.18488 15.079 2.72028 15.481C1.25568 15.8831 0.394309 17.3963 0.796357 18.8609L7.3481 42.728ZM60.75 15.75L63.3417 14.8304L63.3417 14.8304L60.75 15.75ZM111.739 19.8874L104.327 26.0648L107.848 30.29L115.261 24.1126L111.739 19.8874ZM24.2695 11.3731L7.61007 40.6396L12.3899 43.3604L29.0493 14.0939L24.2695 11.3731ZM29.0493 14.0939C35.8547 2.1385 53.558 3.70496 58.1583 16.6696L63.3417 14.8304C57.1667 -2.57173 33.4042 -4.67436 24.2695 11.3731L29.0493 14.0939ZM104.327 26.0648C90.4784 37.605 69.3699 31.8189 63.3417 14.8304L58.1583 16.6696C65.4668 37.2662 91.0583 44.2811 107.848 30.29L104.327 26.0648Z" fill="url(#paint0_linear)" fill-opacity="0.85"/>
<defs>
<linearGradient id="paint0_linear" x1="120.5" y1="34.9997" x2="15" y2="35.4997" gradientUnits="userSpaceOnUse">
<stop offset="0.4375" stop-color="#008DFF"/>
<stop offset="0.661458" stop-color="#FF0000"/>
</linearGradient>
</defs>
</svg>
